Coordinates
version=1
nRows=12
nColumns=42
inDegrees=yes

Units are S.I. units (second, meters, Newtons, ...)
If the header above contains a line with 'inDegrees', this indicates whether rotational values are in degrees (yes) or radians (no).

endheader
time	pelvis_tilt	pelvis_list	pelvis_rotation	pelvis_tx	pelvis_ty	pelvis_tz	hip_flexion_r	hip_adduction_r	hip_rotation_r	knee_angle_r	knee_adduction_r	knee_angle_r_beta	ankle_angle_r	subtalar_angle_r	mtp_angle_r	hip_flexion_l	hip_adduction_l	hip_rotation_l	knee_angle_l	knee_adduction_l	knee_angle_l_beta	ankle_angle_l	subtalar_angle_l	mtp_angle_l	lumbar_extension	lumbar_bending	lumbar_rotation	arm_flex_r	arm_add_r	arm_rot_r	elbow_flex_r	pro_sup_r	wrist_flex_r	wrist_dev_r	arm_flex_l	arm_add_l	arm_rot_l	elbow_flex_l	pro_sup_l	wrist_flex_l	wrist_dev_l
      0.38000000	      7.96847658	     -0.51092229	     -0.29182020	     -1.39743766	      0.91976426	      0.24200775	     21.09894455	      2.53566882	    -15.63987236	     18.85140432	     -3.77605983	      0.32901907	     10.00622099	     13.76659928	     -8.13604283	    -29.52314245	     -1.59266955	    -22.97520029	     20.84307694	     -3.79189487	      0.36378032	     16.52674160	     34.67935524	     -8.13604283	    -21.91785665	      4.25231101	     -6.45433986	     -5.88020024	     -7.21520368	      3.19556342	     29.46572450	     90.00000001	      0.00000000	      0.00000000	      6.05141163	    -15.12086755	     -8.37834546	     52.83305095	     90.00000001	      0.00000000	      0.00000000
      0.39000000	      8.37601896	     -1.17586881	     -0.42179643	     -1.38014187	      0.92179793	      0.24399170	     20.43231551	      3.40553161	    -15.63503875	     20.63345423	     -4.12006996	      0.36012171	     10.11994582	     13.21931446	     -8.12778560	    -29.40948521	     -2.53220333	    -22.96114925	     23.59142596	     -4.41142733	      0.41174806	     13.96404596	     33.37147623	     -8.12778560	    -22.29130583	      4.92961394	     -6.10101435	     -5.57011364	     -7.38540389	      3.12887469	     29.41946480	     90.00000001	      0.00000000	      0.00000000	      5.43574838	    -14.72026293	     -8.48928342	     52.39473515	     90.00000001	      0.00000000	      0.00000000
      0.40000000	      8.88790029	     -1.92509819	     -0.59615730	     -1.36306357	      0.92464151	      0.24619007	     19.25927081	      4.43526190	    -15.02724031	     21.69278229	     -4.19566972	      0.37861047	     10.08017146	     12.38647400	     -8.09737065	    -29.30642863	     -3.56164176	    -22.21581407	     26.50911304	     -4.61698810	      0.46267130	     11.56705231	     30.73213968	     -8.09737065	    -22.83028001	      5.64931026	     -5.65833964	     -5.19190444	     -7.56154616	      3.00753470	     29.38773312	     90.00000001	      0.00000000	      0.00000000	      4.84752767	    -14.31710194	     -8.54248107	     51.83691157	     90.00000001	      0.00000000	      0.00000000
      0.41000000	      9.45012225	     -2.36264052	     -0.88174949	     -1.34630198	      0.92785117	      0.24821939	     18.00569729	      5.03300822	    -14.54356989	     22.76508353	     -4.14923915	      0.39732566	     10.63958731	     12.17026027	     -8.09020063	    -28.96750875	     -4.17848863	    -22.04972213	     29.60306252	     -5.22841916	      0.51667091	      9.35711607	     28.99862668	     -8.09020063	    -23.46290192	      5.98892878	     -5.18027320	     -4.80345364	     -7.74357181	      2.96682484	     29.43199667	     90.00000001	      0.00000000	      0.00000000	      4.29805977	    -13.95325226	     -8.51224763	     51.23424159	     90.00000001	      0.00000000	      0.00000000
      0.42000000	      9.93537416	     -2.84718237	     -1.17504825	     -1.32979549	      0.93138158	      0.25032857	     16.57197733	      5.70417966	    -13.96743119	     23.30787321	     -4.01851543	      0.40679913	     11.23392024	     12.07796601	     -8.08280353	    -28.34093527	     -4.89201463	    -21.80682747	     32.91643869	     -5.73307185	      0.57450023	      7.35515104	     26.54926022	     -8.08280353	    -24.03863797	      6.35300193	     -4.67840871	     -4.38091181	     -7.92704253	      2.92024569	     29.54156975	     90.00000001	      0.00000000	      0.00000000	      3.73053940	    -13.57272767	     -8.39437071	     50.52438874	     90.00000001	      0.00000000	      0.00000000
      0.43000000	     10.38099441	     -3.34123838	     -1.48534623	     -1.31373734	      0.93546546	      0.25263193	     14.84700372	      6.50041096	    -12.75641773	     23.17394873	     -3.75083859	      0.40446171	     11.35170237	     11.06722872	     -8.04656694	    -27.63560635	     -5.53142054	    -20.17028661	     36.16736700	     -5.45484501	      0.63123964	      5.72409630	     21.47023009	     -8.04656694	    -24.62713207	      6.67600483	     -4.07306336	     -3.93567085	     -8.07668104	      2.78339655	     29.63818766	     90.00000001	      0.00000000	      0.00000000	      3.25855988	    -13.20231378	     -8.19842523	     49.71763991	     90.00000001	      0.00000000	      0.00000000
      0.44000000	     10.60245636	     -3.59244433	     -1.81421625	     -1.29802663	      0.93914234	      0.25469612	     13.43106763	      6.88415695	    -12.20195650	     23.13188204	     -3.52915006	      0.40372750	     12.25050798	     11.35698110	     -8.03328243	    -26.25705805	     -6.02506038	    -20.33880505	     39.65010042	     -6.22278075	      0.69202480	      4.53601818	     19.27244849	     -8.03328243	    -24.95842616	      6.73183258	     -3.54548709	     -3.52001990	     -8.23152943	      2.78040591	     29.80752269	     90.00000001	      0.00000000	      0.00000000	      2.76071859	    -12.86378208	     -7.91365063	     48.85621366	     90.00000001	      0.00000000	      0.00000000
      0.45000000	     10.75492678	     -3.80960337	     -2.08341169	     -1.28269224	      0.94295587	      0.25657065	     11.93743930	      7.20430236	    -11.71353516	     22.73434355	     -3.28617592	      0.39678915	     13.02870930	     11.79400139	     -8.02170416	    -24.65452647	     -6.46509913	    -20.42638927	     42.99770809	     -7.04453684	      0.75045158	      3.90897476	     16.94778520	     -8.02170416	    -25.23921934	      6.77607442	     -3.03429774	     -3.10012757	     -8.42335496	      2.77590425	     30.05412302	     90.00000001	      0.00000000	      0.00000000	      2.32817683	    -12.53940913	     -7.54957077	     47.94371986	     90.00000001	      0.00000000	      0.00000000
      0.46000000	     10.81779983	     -4.02444799	     -2.42056074	     -1.26767146	      0.94678203	      0.25885462	     10.47403477	      7.61805523	    -11.26847314	     22.12931420	     -3.21029699	      0.38622939	     13.54199335	     12.14779699	     -8.00285489	    -22.91066231	     -7.00153404	    -20.31198751	     46.20564621	     -7.43112400	      0.80644066	      3.56168462	     13.94104562	     -8.00285489	    -25.44003494	      6.73443779	     -2.43001530	     -2.70105558	     -8.57346497	      2.78958658	     30.33494959	     90.00000001	      0.00000000	      0.00000000	      1.90526728	    -12.26942682	     -7.06649748	     46.97162956	     90.00000001	      0.00000000	      0.00000000
      0.47000000	     11.06876468	     -3.90538100	     -2.62012883	     -1.25275393	      0.95101794	      0.26042979	      8.66074004	      7.47361933	    -10.91312467	     21.25748863	     -2.88826405	      0.37101317	     14.28461629	     12.75349757	     -7.99311053	    -21.25014026	     -7.04665349	    -20.63545494	     48.85300804	     -8.47391628	      0.85264584	      3.77169406	     12.23488487	     -7.99311053	    -25.78861379	      6.40756700	     -2.08975430	     -2.28036861	     -8.72534475	      2.82380067	     30.67919209	     90.00000001	      0.00000000	      0.00000000	      1.49647874	    -12.01132658	     -6.62678850	     46.00717238	     90.00000001	      0.00000000	      0.00000000
      0.48000000	     11.13161309	     -3.96159049	     -2.92266280	     -1.23814161	      0.95500065	      0.26261301	      7.01267487	      7.67116173	    -10.54763027	     20.20811371	     -2.78394346	      0.35269812	     14.76666194	     13.39234840	     -7.97331069	    -19.37723503	     -7.37387378	    -20.91410975	     51.32619159	     -9.13018383	      0.89581104	      4.00377541	      9.84495356	     -7.97331069	    -25.96075316	      6.16572839	     -1.51394894	     -1.92594638	     -8.87389132	      2.95921123	     31.07415786	     90.00000001	      0.00000000	      0.00000000	      1.14195310	    -11.84804391	     -5.93337471	     45.02074241	     90.00000001	      0.00000000	      0.00000000
      0.49000000	     11.31956252	     -3.68745462	     -3.13807267	     -1.22358044	      0.95920202	      0.26421021	      5.17426158	      7.34940830	    -10.27603440	     19.04814663	     -2.50381886	      0.33245288	     15.32092331	     14.07796656	     -7.96326697	    -17.57791977	     -7.21490460	    -21.49422506	     53.20308984	    -10.23933418	      0.92856909	      4.77426894	      8.57537072	     -7.96326697	    -26.20825229	      5.63504516	     -1.18113381	     -1.52407861	     -9.00813216	      3.05892353	     31.45793669	     90.00000001	      0.00000000	      0.00000000	      0.75263215	    -11.65537375	     -5.40838426	     44.06181812	     90.00000001	      0.00000000	      0.00000000
